<svg viewBox="0 0 11 10" fill="none" xmlns="http://www.w3.org/2000/svg">
<path fill-rule="evenodd" clip-rule="evenodd" d="M7.1529 3.19743L5.26091 5.68193L4.44441 4.63893C4.27441 4.42093 3.95941 4.38293 3.74241 4.55343C3.52491 4.72343 3.48641 5.03793 3.65691 5.25493L4.87241 6.80843C4.96741 6.92943 5.11241 6.99993 5.26641 6.99993H5.26991C5.42441 6.99943 5.57041 6.92643 5.66391 6.80293L7.9484 3.80293C8.1159 3.58293 8.0734 3.26993 7.8534 3.10243C7.6329 2.93493 7.3199 2.97793 7.1529 3.19743ZM5.79915 8.99935C3.59365 8.99935 1.79915 7.20485 1.79915 4.99935C1.79915 2.79385 3.59365 0.999349 5.79915 0.999349C8.00465 0.999349 9.79915 2.79385 9.79915 4.99935C9.79915 7.20485 8.00465 8.99935 5.79915 8.99935ZM5.7998 0C3.0383 0 0.799805 2.239 0.799805 5C0.799805 7.761 3.0383 10 5.7998 10C8.5613 10 10.7998 7.761 10.7998 5C10.7998 2.239 8.5613 0 5.7998 0Z" fill="#289295"/>
</svg>
