<svg width="24" height="24" viewBox="0 0 24 24" fill="none" xmlns="http://www.w3.org/2000/svg">
<path fill-rule="evenodd" clip-rule="evenodd" d="M13.4141 12.0002L17.7071 7.70725C18.0981 7.31625 18.0981 6.68425 17.7071 6.29325C17.3161 5.90225 16.6841 5.90225 16.2931 6.29325L12.0001 10.5862L7.70713 6.29325C7.31613 5.90225 6.68413 5.90225 6.29313 6.29325C5.90213 6.68425 5.90213 7.31625 6.29313 7.70725L10.5861 12.0002L6.29313 16.2933C5.90213 16.6842 5.90213 17.3162 6.29313 17.7072C6.48813 17.9022 6.74413 18.0002 7.00013 18.0002C7.25613 18.0002 7.51213 17.9022 7.70713 17.7072L12.0001 13.4142L16.2931 17.7072C16.4881 17.9022 16.7441 18.0002 17.0001 18.0002C17.2561 18.0002 17.5121 17.9022 17.7071 17.7072C18.0981 17.3162 18.0981 16.6842 17.7071 16.2933L13.4141 12.0002Z" fill="#1F211B"/>
</svg>
