<svg width="23" height="23" viewBox="0 0 23 23" fill="none" xmlns="http://www.w3.org/2000/svg">
<rect x="0.254395" width="22.2545" height="22.2545" rx="1.30909" fill="#E7E9F2"/>
<g clip-path="url(#clip0)">
<path d="M15.1192 7.36719H9.15324C8.30724 7.36719 7.62143 8.053 7.62143 8.89899V14.865C7.62143 15.711 8.30724 16.3968 9.15324 16.3968H15.1192C15.9652 16.3968 16.651 15.711 16.651 14.865V8.89899C16.651 8.053 15.9652 7.36719 15.1192 7.36719Z" stroke="#1F211B" stroke-width="0.859961" stroke-linejoin="round"/>
<path d="M14.4877 7.36719L14.5012 6.72222C14.5 6.32343 14.3411 5.94131 14.0591 5.65932C13.7771 5.37734 13.395 5.21842 12.9962 5.21729H7.19148C6.73574 5.21863 6.29906 5.40027 5.9768 5.72253C5.65454 6.04478 5.4729 6.48147 5.47156 6.93721V12.7419C5.47269 13.1407 5.63161 13.5229 5.9136 13.8048C6.19558 14.0868 6.57771 14.2457 6.97649 14.2469H7.62146" stroke="#1F211B" stroke-width="0.859961" stroke-linecap="round" stroke-linejoin="round"/>
</g>
<defs>
<clipPath id="clip0">
<rect width="13.7594" height="13.7594" fill="white" transform="translate(4.18164 3.92725)"/>
</clipPath>
</defs>
</svg>
