<svg width="23" height="23" viewBox="0 0 23 23" fill="none" xmlns="http://www.w3.org/2000/svg">
<rect width="22.2545" height="22.2545" rx="1.30909" fill="#E7E9F2"/>
<path d="M10.6408 14.3101C10.7239 14.3932 10.8343 14.4353 10.9447 14.4353C11.0551 14.4353 11.1642 14.3932 11.2486 14.3101L13.1822 12.3764C13.3497 12.2089 13.3497 11.9373 13.1822 11.7699C13.1016 11.6892 12.9937 11.6446 12.8796 11.6446C12.7655 11.6446 12.6576 11.6892 12.5769 11.7699L11.3751 12.9717V5.80513C11.3751 5.56823 11.1828 5.37598 10.9459 5.37598C10.709 5.37598 10.5168 5.56823 10.5168 5.80513V12.9717L9.31488 11.7699C9.14744 11.6024 8.87581 11.6024 8.7096 11.7699C8.54216 11.9373 8.54216 12.2089 8.70836 12.3764L10.6408 14.3101Z" fill="black"/>
</svg>
