<svg width="34" height="34" viewBox="0 0 34 34" fill="none" xmlns="http://www.w3.org/2000/svg">
<rect opacity="0.2" width="34" height="34" rx="1.47826" fill="#C2C9DF"/>
<path fill-rule="evenodd" clip-rule="evenodd" d="M23.9977 28H9.58737C8.71928 28 8 27.2931 8 26.4126V14.2221L16.2593 6H23.9977C24.8658 6 25.5851 6.71928 25.5851 7.58737V26.4126C25.5851 27.2807 24.8658 28 23.9977 28Z" fill="#289295"/>
<path fill-rule="evenodd" clip-rule="evenodd" d="M14.3496 13.6019H8.64502L15.6394 6.63232V12.2997C15.6518 13.019 15.0689 13.6019 14.3496 13.6019Z" fill="#116466"/>
<path fill-rule="evenodd" clip-rule="evenodd" d="M19.1734 18.1284H16.0606V17.0371C16.0606 16.1814 16.7551 15.4745 17.6232 15.4745C18.4789 15.4745 19.1734 16.169 19.1734 17.0371V18.1284ZM18.1937 20.4846V21.4519C18.1937 21.7 17.9953 21.9108 17.7348 21.9108C17.4868 21.9108 17.276 21.7124 17.276 21.4519V20.4846C17.1148 20.3482 17.0156 20.1622 17.0156 19.939C17.0156 19.5421 17.338 19.2197 17.7348 19.2197C18.1317 19.2197 18.4541 19.5421 18.4541 19.939C18.4541 20.1622 18.3425 20.3606 18.1937 20.4846ZM20.0539 18.1284V17.0371C20.0539 15.6853 18.9502 14.594 17.6108 14.594C16.2591 14.594 15.1677 15.6977 15.1677 17.0371V18.1284C15.1677 18.1284 15.0065 18.1284 14.9445 18.1284C14.6841 18.1284 14.6841 18.4012 14.6841 18.4012V22.3572C14.6841 22.3572 14.6097 22.6673 14.9197 22.6673C14.9445 22.6673 15.0065 22.6673 15.0065 22.6673H20.1407C20.1407 22.6673 20.2275 22.6673 20.2647 22.6673C20.5747 22.6673 20.5747 22.4068 20.5747 22.4068V18.3268C20.5747 18.3268 20.6119 18.1036 20.2771 18.116C20.2275 18.1408 20.0539 18.1284 20.0539 18.1284Z" fill="white"/>
</svg>
