<svg width="19" height="18" viewBox="0 0 19 18" fill="none" xmlns="http://www.w3.org/2000/svg">
<path fill-rule="evenodd" clip-rule="evenodd" d="M9.87817 6.75C9.46417 6.75 9.12817 6.414 9.12817 6C9.12817 5.586 9.46417 5.25 9.87817 5.25C10.2922 5.25 10.6282 5.586 10.6282 6C10.6282 6.414 10.2922 6.75 9.87817 6.75ZM10.6282 12C10.6282 12.414 10.2922 12.75 9.87817 12.75C9.46417 12.75 9.12817 12.414 9.12817 12V8.25C9.12817 7.836 9.46417 7.5 9.87817 7.5C10.2922 7.5 10.6282 7.836 10.6282 8.25V12ZM9.87817 1.5C5.73592 1.5 2.37817 4.85775 2.37817 9C2.37817 13.1423 5.73592 16.5 9.87817 16.5C14.0197 16.5 17.3782 13.1423 17.3782 9C17.3782 4.85775 14.0197 1.5 9.87817 1.5Z" fill="#95A1C3"/>
</svg>
