<svg width="16" height="16" viewBox="0 0 16 16" fill="none" xmlns="http://www.w3.org/2000/svg">
<path fill-rule="evenodd" clip-rule="evenodd" d="M8 5.75C7.586 5.75 7.25 5.414 7.25 5C7.25 4.586 7.586 4.25 8 4.25C8.414 4.25 8.75 4.586 8.75 5C8.75 5.414 8.414 5.75 8 5.75ZM8.75 11C8.75 11.414 8.414 11.75 8 11.75C7.586 11.75 7.25 11.414 7.25 11V7.25C7.25 6.836 7.586 6.5 8 6.5C8.414 6.5 8.75 6.836 8.75 7.25V11ZM8 0.5C3.85775 0.5 0.5 3.85775 0.5 8C0.5 12.1423 3.85775 15.5 8 15.5C12.1415 15.5 15.5 12.1423 15.5 8C15.5 3.85775 12.1415 0.5 8 0.5Z" fill="#116466"/>
</svg>
