<svg width="140" height="40" viewBox="0 0 243 70" fill="none" xmlns="http://www.w3.org/2000/svg">
<path d="M88.0625 34.1303C88.0625 35.8119 86.6327 37.1578 84.8671 37.1578H80.7455C80.5963 37.1585 80.4485 37.1297 80.3105 37.0729C80.1725 37.0161 80.0471 36.9326 79.9416 36.8271C79.8361 36.7216 79.7526 36.5962 79.6958 36.4582C79.639 36.3202 79.6102 36.1723 79.6109 36.0231V27.0353C79.6102 26.886 79.639 26.738 79.6958 26.5999C79.7525 26.4617 79.836 26.3362 79.9415 26.2305C80.0469 26.1247 80.1723 26.0409 80.3103 25.9839C80.4483 25.9268 80.5962 25.8976 80.7455 25.898H84.8671C86.6327 25.898 88.0625 27.252 88.0625 28.9255V34.1303ZM84.9077 21.0209H75.9091C75.7599 21.0202 75.612 21.049 75.474 21.1058C75.336 21.1626 75.2107 21.2461 75.1052 21.3516C74.9997 21.4571 74.9161 21.5825 74.8593 21.7205C74.8026 21.8585 74.7737 22.0063 74.7744 22.1555V49.8691C74.7737 50.0183 74.8026 50.1662 74.8593 50.3042C74.9161 50.4421 74.9997 50.5675 75.1052 50.673C75.2107 50.7785 75.336 50.8621 75.474 50.9188C75.612 50.9756 75.7599 51.0045 75.9091 51.0037H78.4763C78.6254 51.0041 78.7731 50.975 78.9109 50.9181C79.0487 50.8612 79.1739 50.7776 79.2794 50.6722C79.3848 50.5668 79.4684 50.4416 79.5253 50.3037C79.5821 50.1659 79.6112 50.0182 79.6109 49.8691V43.2237C79.6102 43.0745 79.639 42.9266 79.6958 42.7886C79.7526 42.6506 79.8361 42.5253 79.9416 42.4198C80.0471 42.3143 80.1725 42.2307 80.3105 42.1739C80.4485 42.1172 80.5963 42.0883 80.7455 42.089H84.8671C89.2811 42.089 92.899 38.5687 92.899 34.1844V28.9255C92.899 24.5548 89.2811 21.0209 84.8671 21.0209H84.9077ZM113.16 41.9211C113.16 43.0365 112.717 44.1062 111.928 44.8949C111.14 45.6836 110.07 46.1267 108.955 46.1267C107.839 46.1267 106.77 45.6836 105.981 44.8949C105.192 44.1062 104.749 43.0365 104.749 41.9211V30.1035C104.749 28.9881 105.192 27.9184 105.981 27.1297C106.77 26.341 107.839 25.898 108.955 25.898C110.07 25.898 111.14 26.341 111.928 27.1297C112.717 27.9184 113.16 28.9881 113.16 30.1035V41.9211ZM108.955 21.0209C106.547 21.0252 104.239 21.9835 102.537 23.6859C100.835 25.3882 99.8764 27.6959 99.8721 30.1035V41.9211C99.8721 44.33 100.829 46.6402 102.532 48.3435C104.236 50.0468 106.546 51.0037 108.955 51.0037C111.364 51.0037 113.674 50.0468 115.377 48.3435C117.08 46.6402 118.037 44.33 118.037 41.9211V30.1035C118.033 27.6959 117.075 25.3882 115.372 23.6859C113.67 21.9835 111.362 21.0252 108.955 21.0209ZM140.151 51.0037H126.148C125.998 51.0045 125.85 50.9756 125.712 50.9189C125.574 50.8621 125.449 50.7786 125.343 50.6732C125.237 50.5677 125.153 50.4424 125.096 50.3044C125.039 50.1664 125.01 50.0184 125.01 49.8691V22.1989C125.01 22.0495 125.039 21.9016 125.096 21.7636C125.153 21.6256 125.237 21.5002 125.343 21.3948C125.449 21.2893 125.574 21.2058 125.712 21.1491C125.85 21.0923 125.998 21.0635 126.148 21.0642H128.712C128.861 21.0635 129.009 21.0924 129.147 21.1491C129.285 21.2059 129.411 21.2894 129.516 21.3949C129.622 21.5004 129.705 21.6258 129.762 21.7638C129.819 21.9018 129.848 22.0497 129.847 22.1989V44.9893C129.846 45.1389 129.875 45.2871 129.932 45.4254C129.989 45.5637 130.073 45.6894 130.178 45.7951C130.284 45.9009 130.41 45.9846 130.548 46.0415C130.686 46.0984 130.835 46.1274 130.984 46.1267H140.107C140.257 46.1259 140.404 46.1548 140.542 46.2116C140.68 46.2683 140.806 46.3519 140.911 46.4574C141.017 46.5629 141.1 46.6883 141.157 46.8262C141.214 46.9642 141.243 47.1121 141.242 47.2613V49.8366C141.243 49.9858 141.214 50.1337 141.157 50.2717C141.1 50.4096 141.017 50.535 140.911 50.6405C140.806 50.746 140.68 50.8296 140.542 50.8863C140.404 50.9431 140.257 50.972 140.107 50.9712L140.151 51.0037ZM158.489 21.6518L152.729 33.2962C152.689 33.3727 152.628 33.4367 152.554 33.4813C152.48 33.526 152.395 33.5496 152.308 33.5496C152.222 33.5496 152.137 33.526 152.063 33.4813C151.988 33.4367 151.928 33.3727 151.887 33.2962L146.084 21.6518C145.987 21.4659 145.843 21.3092 145.665 21.1982C145.488 21.0872 145.283 21.026 145.074 21.0209H142.217C142.023 21.0203 141.833 21.0694 141.664 21.1635C141.495 21.2575 141.353 21.3935 141.252 21.5582C141.15 21.7229 141.093 21.9109 141.085 22.1042C141.077 22.2975 141.119 22.4895 141.207 22.6619L149.742 39.8604C149.824 40.0159 149.867 40.1885 149.87 40.3641V49.8691C149.869 50.0183 149.898 50.1662 149.955 50.3042C150.011 50.4421 150.095 50.5675 150.2 50.673C150.306 50.7785 150.431 50.8621 150.569 50.9188C150.707 50.9756 150.855 51.0045 151.004 51.0037H153.577C153.726 51.0045 153.874 50.9756 154.012 50.9189C154.151 50.8621 154.276 50.7786 154.382 50.6732C154.488 50.5677 154.571 50.4424 154.628 50.3044C154.685 50.1664 154.715 50.0184 154.714 49.8691V40.5753C154.716 40.3991 154.759 40.2257 154.839 40.0689L163.418 22.6619C163.505 22.4895 163.547 22.2975 163.539 22.1042C163.532 21.9109 163.474 21.7229 163.373 21.5582C163.271 21.3935 163.129 21.2575 162.96 21.1635C162.791 21.0694 162.601 21.0203 162.408 21.0209H159.535C159.321 21.027 159.112 21.0883 158.929 21.1988C158.746 21.3094 158.594 21.4654 158.489 21.6518ZM175.606 49.8691V40.1203C175.616 40.0313 175.644 39.9453 175.69 39.8685L176.573 38.6905C176.626 38.6299 176.692 38.5828 176.766 38.5533C176.841 38.5237 176.921 38.5126 177.001 38.5208C177.081 38.5291 177.158 38.5564 177.224 38.6006C177.291 38.6447 177.347 38.7044 177.386 38.7745L184.072 50.4649C184.17 50.6454 184.316 50.7956 184.493 50.8992C184.671 51.0028 184.873 51.0558 185.079 51.0525H188.023C188.224 51.0504 188.421 50.9963 188.595 50.8955C188.768 50.7947 188.913 50.6506 189.015 50.4772C189.117 50.3038 189.172 50.107 189.175 49.906C189.178 49.705 189.129 49.5067 189.033 49.3302L180.622 34.5283C180.5 34.3283 180.443 34.0959 180.458 33.8625C180.473 33.6291 180.56 33.4059 180.706 33.2231L188.781 22.8704C188.913 22.6994 188.994 22.4946 189.015 22.2796C189.035 22.0646 188.995 21.848 188.898 21.6549C188.802 21.4617 188.652 21.2997 188.468 21.1876C188.283 21.0754 188.071 21.0177 187.855 21.0209H184.564C184.391 21.0217 184.22 21.0642 184.067 21.1448C183.913 21.2254 183.781 21.3417 183.682 21.4839L176.449 30.7344C176.39 30.8116 176.309 30.868 176.216 30.8954C176.123 30.9228 176.024 30.9197 175.933 30.8867C175.843 30.8537 175.765 30.7924 175.711 30.7119C175.658 30.6314 175.631 30.5358 175.636 30.4393V22.1555C175.637 22.0063 175.608 21.8585 175.551 21.7205C175.495 21.5825 175.411 21.4571 175.305 21.3516C175.2 21.2461 175.075 21.1626 174.937 21.1058C174.799 21.049 174.651 21.0202 174.502 21.0209H171.934C171.785 21.0202 171.637 21.049 171.499 21.1058C171.361 21.1626 171.236 21.2461 171.13 21.3516C171.025 21.4571 170.941 21.5825 170.885 21.7205C170.828 21.8585 170.799 22.0063 170.8 22.1555V49.8366C170.799 49.9858 170.828 50.1337 170.885 50.2717C170.941 50.4096 171.025 50.535 171.13 50.6405C171.236 50.746 171.361 50.8296 171.499 50.8863C171.637 50.9431 171.785 50.972 171.934 50.9712H174.502C174.651 50.972 174.799 50.9431 174.937 50.8863C175.075 50.8296 175.2 50.746 175.305 50.6405C175.411 50.535 175.495 50.4096 175.551 50.2717C175.608 50.1337 175.637 49.9858 175.636 49.8366L175.606 49.8691ZM197.446 51.0037H211.409C211.558 51.0045 211.706 50.9756 211.844 50.9188C211.982 50.8621 212.107 50.7785 212.213 50.673C212.318 50.5675 212.402 50.4421 212.458 50.3042C212.515 50.1662 212.544 50.0183 212.543 49.8691V47.3019C212.544 47.1527 212.515 47.0048 212.458 46.8669C212.402 46.7289 212.318 46.6035 212.213 46.498C212.107 46.3925 211.982 46.3089 211.844 46.2522C211.706 46.1954 211.558 46.1666 211.409 46.1673H202.321C202.172 46.1676 202.024 46.1385 201.886 46.0816C201.748 46.0247 201.623 45.9412 201.518 45.8357C201.412 45.7303 201.329 45.6051 201.272 45.4673C201.215 45.3294 201.186 45.1817 201.186 45.0326V39.6166C201.183 39.466 201.21 39.3162 201.266 39.1762C201.322 39.0362 201.405 38.9087 201.511 38.8012C201.617 38.6938 201.743 38.6085 201.882 38.5504C202.021 38.4924 202.17 38.4627 202.321 38.463H207.466C207.615 38.4638 207.763 38.4349 207.901 38.3781C208.039 38.3214 208.164 38.2378 208.27 38.1323C208.375 38.0268 208.459 37.9014 208.516 37.7635C208.572 37.6255 208.601 37.4776 208.601 37.3284V34.7639C208.601 34.6147 208.572 34.4669 208.516 34.3289C208.459 34.1909 208.375 34.0655 208.27 33.96C208.164 33.8545 208.039 33.771 207.901 33.7142C207.763 33.6574 207.615 33.6286 207.466 33.6293H202.321C202.171 33.6296 202.023 33.6004 201.885 33.5434C201.747 33.4863 201.622 33.4025 201.517 33.2968C201.411 33.1911 201.328 33.0655 201.271 32.9274C201.214 32.7893 201.185 32.6413 201.186 32.4919V27.1599C201.186 27.0108 201.215 26.8631 201.272 26.7253C201.329 26.5874 201.412 26.4622 201.518 26.3568C201.623 26.2513 201.748 26.1678 201.886 26.1109C202.024 26.054 202.172 26.0249 202.321 26.0252H211.406C211.555 26.026 211.703 25.9971 211.841 25.9403C211.979 25.8836 212.104 25.8 212.21 25.6945C212.315 25.589 212.399 25.4636 212.456 25.3257C212.513 25.1877 212.541 25.0398 212.541 24.8906V22.3234C212.541 22.1743 212.512 22.0266 212.455 21.8888C212.398 21.751 212.315 21.6257 212.209 21.5203C212.104 21.4149 211.979 21.3313 211.841 21.2744C211.703 21.2175 211.555 21.1884 211.406 21.1888H197.446C197.297 21.1884 197.15 21.2175 197.012 21.2744C196.874 21.3313 196.749 21.4149 196.643 21.5203C196.538 21.6257 196.454 21.751 196.397 21.8888C196.34 22.0266 196.311 22.1743 196.312 22.3234V50.037C196.311 50.1862 196.34 50.3341 196.397 50.472C196.453 50.61 196.537 50.7354 196.642 50.8409C196.748 50.9464 196.873 51.03 197.011 51.0867C197.149 51.1435 197.297 51.1724 197.446 51.1716V51.0037ZM237.192 21.6518L231.429 33.2962C231.389 33.3728 231.328 33.4369 231.254 33.4817C231.18 33.5264 231.096 33.5501 231.009 33.5501C230.923 33.5501 230.838 33.5264 230.764 33.4817C230.69 33.4369 230.63 33.3728 230.589 33.2962L224.797 21.6518C224.7 21.4662 224.555 21.3099 224.378 21.1989C224.2 21.088 223.996 21.0265 223.787 21.0209H220.916C220.723 21.021 220.533 21.0706 220.365 21.1649C220.196 21.2592 220.055 21.395 219.953 21.5595C219.852 21.724 219.795 21.9116 219.786 22.1046C219.778 22.2976 219.82 22.4894 219.906 22.6619L228.445 39.8604C228.525 40.0161 228.568 40.1887 228.569 40.3641V49.8691C228.569 50.0182 228.598 50.1659 228.655 50.3037C228.712 50.4416 228.795 50.5668 228.901 50.6722C229.006 50.7776 229.131 50.8612 229.269 50.9181C229.407 50.975 229.555 51.0041 229.704 51.0037H232.271C232.42 51.0045 232.568 50.9756 232.706 50.9188C232.844 50.8621 232.97 50.7785 233.075 50.673C233.181 50.5675 233.264 50.4421 233.321 50.3042C233.378 50.1662 233.406 50.0183 233.406 49.8691V40.5753C233.408 40.3989 233.452 40.2256 233.533 40.0689L242.109 22.6619C242.197 22.4897 242.239 22.2979 242.231 22.1049C242.223 21.9118 242.166 21.724 242.065 21.5593C241.964 21.3947 241.822 21.2587 241.654 21.1645C241.485 21.0702 241.295 21.0207 241.102 21.0209H238.242C238.027 21.0252 237.817 21.0858 237.633 21.1965C237.449 21.3071 237.296 21.4641 237.192 21.6518Z" fill="#D1E8E2"/>
<path d="M62.6371 49.9463C62.7715 49.3835 62.7359 48.7935 62.5348 48.251C62.3338 47.7084 61.9764 47.2377 61.5078 46.8984C61.0391 46.559 60.4804 46.3663 59.9022 46.3446C59.324 46.3229 58.7524 46.4731 58.2596 46.7764C57.7669 47.0796 57.3751 47.5222 57.134 48.0481C56.8928 48.574 56.8131 49.1597 56.9048 49.731C56.9966 50.3022 57.2557 50.8334 57.6494 51.2574C58.0432 51.6813 58.5538 51.979 59.1167 52.1127C59.8707 52.2895 60.6639 52.161 61.3235 51.7551C61.983 51.3492 62.4552 50.699 62.6371 49.9463Z" fill="#116466"/>
<path d="M5.76932 49.9453C5.90367 49.3825 5.86808 48.7925 5.66705 48.25C5.46601 47.7075 5.10857 47.2367 4.63995 46.8974C4.17133 46.5581 3.61258 46.3653 3.03441 46.3436C2.45623 46.3219 1.8846 46.4722 1.39184 46.7754C0.899082 47.0786 0.507339 47.5212 0.266173 48.0471C0.0250079 48.5731 -0.0547428 49.1587 0.0370115 49.73C0.128766 50.3012 0.387902 50.8325 0.781634 51.2564C1.17537 51.6804 1.686 51.978 2.24893 52.1117C3.00287 52.2885 3.79615 52.16 4.45567 51.7541C5.11519 51.3483 5.58742 50.698 5.76932 49.9453Z" fill="#289295"/>
<path d="M53.1592 56.4094C53.2936 55.8466 53.258 55.2567 53.0569 54.7141C52.8559 54.1716 52.4985 53.7009 52.0298 53.3615C51.5612 53.0222 51.0025 52.8294 50.4243 52.8077C49.8461 52.786 49.2745 52.9363 48.7817 53.2395C48.289 53.5427 47.8972 53.9853 47.6561 54.5113C47.4149 55.0372 47.3351 55.6228 47.4269 56.1941C47.5187 56.7654 47.7778 57.2966 48.1715 57.7205C48.5653 58.1445 49.0759 58.4421 49.6388 58.5758C50.3928 58.7534 51.1864 58.6251 51.8461 58.2192C52.5059 57.8132 52.978 57.1625 53.1592 56.4094Z" fill="#116466"/>
<path d="M15.2854 56.5254C15.4198 55.9626 15.3842 55.3726 15.1832 54.8301C14.9821 54.2875 14.6247 53.8168 14.1561 53.4775C13.6874 53.1381 13.1287 52.9454 12.5505 52.9237C11.9723 52.902 11.4007 53.0522 10.908 53.3555C10.4152 53.6587 10.0235 54.1013 9.78229 54.6272C9.54112 55.1531 9.46137 55.7388 9.55312 56.3101C9.64488 56.8813 9.90402 57.4125 10.2977 57.8365C10.6915 58.2604 11.2021 58.5581 11.765 58.6918C12.519 58.8686 13.3123 58.7401 13.9718 58.3342C14.6313 57.9283 15.1035 57.2781 15.2854 56.5254Z" fill="#289295"/>
<path d="M43.6812 62.3672C43.8155 61.8044 43.7799 61.2144 43.5789 60.6719C43.3779 60.1293 43.0204 59.6586 42.5518 59.3193C42.0832 58.9799 41.5245 58.7872 40.9463 58.7655C40.3681 58.7438 39.7965 58.894 39.3037 59.1973C38.8109 59.5005 38.4192 59.9431 38.178 60.469C37.9369 60.9949 37.8571 61.5806 37.9489 62.1519C38.0406 62.7231 38.2998 63.2543 38.6935 63.6783C39.0872 64.1022 39.5979 64.3999 40.1608 64.5336C40.9142 64.7031 41.7041 64.5714 42.3618 64.1667C43.0195 63.762 43.493 63.1162 43.6812 62.3672Z" fill="#116466"/>
<path d="M24.6765 62.3286C24.8109 61.7658 24.7753 61.1758 24.5743 60.6333C24.3732 60.0908 24.0158 59.62 23.5472 59.2807C23.0786 58.9414 22.5198 58.7486 21.9416 58.7269C21.3635 58.7052 20.7918 58.8555 20.2991 59.1587C19.8063 59.4619 19.4146 59.9045 19.1734 60.4304C18.9322 60.9564 18.8525 61.542 18.9442 62.1133C19.036 62.6845 19.2951 63.2158 19.6889 63.6397C20.0826 64.0637 20.5932 64.3613 21.1562 64.495C21.9096 64.6645 22.6995 64.5329 23.3572 64.1281C24.0149 63.7234 24.4884 63.0776 24.6765 62.3286Z" fill="#289295"/>
<path d="M33.9029 67.761C34.0372 67.1982 34.0016 66.6082 33.8006 66.0657C33.5996 65.5231 33.2421 65.0524 32.7735 64.7131C32.3049 64.3737 31.7461 64.181 31.168 64.1593C30.5898 64.1376 30.0181 64.2878 29.5254 64.5911C29.0326 64.8943 28.6409 65.3369 28.3997 65.8628C28.1586 66.3887 28.0788 66.9744 28.1706 67.5457C28.2623 68.1169 28.5214 68.6481 28.9152 69.0721C29.3089 69.496 29.8195 69.7937 30.3825 69.9274C31.136 70.0976 31.9262 69.9663 32.5841 69.5614C33.2419 69.1566 33.7153 68.5103 33.9029 67.761Z" fill="#289295"/>
<path d="M62.6371 40.0364C62.7715 39.4736 62.7359 38.8836 62.5348 38.3411C62.3338 37.7985 61.9764 37.3278 61.5078 36.9885C61.0391 36.6491 60.4804 36.4564 59.9022 36.4347C59.324 36.413 58.7524 36.5632 58.2596 36.8665C57.7669 37.1697 57.3751 37.6123 57.134 38.1382C56.8928 38.6641 56.8131 39.2498 56.9048 39.821C56.9966 40.3923 57.2557 40.9235 57.6494 41.3475C58.0432 41.7714 58.5538 42.0691 59.1167 42.2028C59.8707 42.3803 60.6643 42.2521 61.324 41.8461C61.9838 41.4402 62.4559 40.7895 62.6371 40.0364Z" fill="#116466"/>
<path d="M5.76932 40.0356C5.90367 39.4729 5.86808 38.8829 5.66705 38.3403C5.46601 37.7978 5.10857 37.3271 4.63995 36.9877C4.17133 36.6484 3.61258 36.4557 3.03441 36.4339C2.45623 36.4122 1.8846 36.5625 1.39184 36.8657C0.899082 37.169 0.507339 37.6115 0.266173 38.1375C0.0250079 38.6634 -0.0547428 39.249 0.0370115 39.8203C0.128766 40.3916 0.387902 40.9228 0.781634 41.3467C1.17537 41.7707 1.686 42.0683 2.24893 42.202C3.00287 42.3788 3.79615 42.2503 4.45567 41.8445C5.11519 41.4386 5.58742 40.7884 5.76932 40.0356Z" fill="#289295"/>
<path d="M62.6371 30.1262C62.7715 29.5634 62.7359 28.9735 62.5348 28.4309C62.3338 27.8884 61.9764 27.4177 61.5078 27.0783C61.0391 26.739 60.4804 26.5462 59.9022 26.5245C59.324 26.5028 58.7524 26.6531 58.2596 26.9563C57.7669 27.2595 57.3751 27.7021 57.134 28.2281C56.8928 28.754 56.8131 29.3396 56.9048 29.9109C56.9966 30.4822 57.2557 31.0134 57.6494 31.4373C58.0432 31.8613 58.5538 32.1589 59.1167 32.2926C59.8707 32.4702 60.6643 32.3419 61.324 31.936C61.9838 31.53 62.4559 30.8793 62.6371 30.1262Z" fill="#116466"/>
<path d="M5.76932 30.1262C5.90367 29.5634 5.86808 28.9735 5.66705 28.4309C5.46601 27.8884 5.10857 27.4177 4.63995 27.0783C4.17133 26.739 3.61258 26.5462 3.03441 26.5245C2.45623 26.5028 1.8846 26.6531 1.39184 26.9563C0.899082 27.2595 0.507339 27.7021 0.266173 28.2281C0.0250078 28.754 -0.0547428 29.3396 0.0370115 29.9109C0.128766 30.4822 0.387902 31.0134 0.781634 31.4373C1.17537 31.8613 1.686 32.1589 2.24893 32.2926C3.00287 32.4694 3.79615 32.3409 4.45567 31.935C5.11519 31.5292 5.58742 30.8789 5.76932 30.1262Z" fill="#289295"/>
<path d="M62.6371 20.2165C62.7715 19.6538 62.7359 19.0638 62.5348 18.5212C62.3338 17.9787 61.9764 17.508 61.5078 17.1686C61.0391 16.8293 60.4804 16.6366 59.9022 16.6149C59.324 16.5931 58.7524 16.7434 58.2596 17.0466C57.7669 17.3499 57.3751 17.7925 57.134 18.3184C56.8928 18.8443 56.8131 19.43 56.9048 20.0012C56.9966 20.5725 57.2557 21.1037 57.6494 21.5277C58.0432 21.9516 58.5538 22.2493 59.1167 22.3829C59.8707 22.5598 60.6639 22.4312 61.3235 22.0254C61.983 21.6195 62.4552 20.9693 62.6371 20.2165Z" fill="#116466"/>
<path d="M5.76932 20.2165C5.90367 19.6538 5.86808 19.0638 5.66705 18.5212C5.46601 17.9787 5.10857 17.508 4.63995 17.1686C4.17133 16.8293 3.61258 16.6366 3.03441 16.6149C2.45623 16.5931 1.8846 16.7434 1.39184 17.0466C0.899082 17.3499 0.507339 17.7925 0.266173 18.3184C0.0250078 18.8443 -0.0547428 19.43 0.0370115 20.0012C0.128766 20.5725 0.387902 21.1037 0.781634 21.5277C1.17537 21.9516 1.686 22.2493 2.24893 22.3829C3.00287 22.5598 3.79615 22.4312 4.45567 22.0254C5.11519 21.6195 5.58742 20.9693 5.76932 20.2165Z" fill="#5FC5BD"/>
<path d="M14.1154 14.0908C14.2497 13.528 14.2141 12.9381 14.0131 12.3955C13.8121 11.853 13.4546 11.3823 12.986 11.0429C12.5174 10.7036 11.9587 10.5108 11.3805 10.4891C10.8023 10.4674 10.2307 10.6177 9.73791 10.9209C9.24515 11.2241 8.85341 11.6667 8.61224 12.1927C8.37108 12.7186 8.29133 13.3042 8.38308 13.8755C8.47484 14.4468 8.73397 14.978 9.1277 15.4019C9.52144 15.8259 10.0321 16.1235 10.595 16.2572C11.3485 16.4275 12.1387 16.2961 12.7966 15.8912C13.4545 15.4864 13.9278 14.8402 14.1154 14.0908Z" fill="#5FC5BD"/>
<path d="M23.7505 8.41771C23.8849 7.85493 23.8493 7.26496 23.6482 6.72242C23.4472 6.17988 23.0898 5.70916 22.6212 5.36981C22.1525 5.03047 21.5938 4.83774 21.0156 4.81603C20.4374 4.79431 19.8658 4.94457 19.373 5.24781C18.8803 5.55105 18.4885 5.99363 18.2474 6.51955C18.0062 7.04548 17.9265 7.63113 18.0182 8.20239C18.11 8.77366 18.3691 9.30487 18.7628 9.72882C19.1566 10.1528 19.6672 10.4504 20.2301 10.5841C20.9836 10.7544 21.7738 10.623 22.4317 10.2182C23.0896 9.81329 23.563 9.16707 23.7505 8.41771Z" fill="#5FC5BD"/>
<path d="M33.7241 3.59777C33.8577 3.03562 33.8217 2.44646 33.6206 1.90478C33.4194 1.3631 33.0622 0.893221 32.594 0.55454C32.1259 0.21586 31.5678 0.0235891 30.9904 0.00203434C30.413 -0.0195204 29.8421 0.130609 29.35 0.433443C28.8579 0.736277 28.4667 1.17822 28.2257 1.7034C27.9847 2.22857 27.9049 2.8134 27.9962 3.38395C28.0876 3.9545 28.3461 4.48516 28.739 4.90882C29.1319 5.33249 29.6416 5.63015 30.2037 5.76416C30.9572 5.93442 31.7474 5.80307 32.4053 5.39822C33.0632 4.99336 33.5365 4.34714 33.7241 3.59777Z" fill="#5FC5BD"/>
<path d="M43.7817 8.35814C43.916 7.79536 43.8804 7.20539 43.6794 6.66285C43.4783 6.12031 43.1209 5.64959 42.6523 5.31024C42.1837 4.9709 41.6249 4.77817 41.0467 4.75646C40.4686 4.73474 39.8969 4.885 39.4042 5.18824C38.9114 5.49147 38.5197 5.93405 38.2785 6.45998C38.0373 6.98591 37.9576 7.57156 38.0493 8.14282C38.1411 8.71409 38.4002 9.2453 38.794 9.66925C39.1877 10.0932 39.6983 10.3909 40.2613 10.5245C41.0148 10.6948 41.8049 10.5634 42.4628 10.1586C43.1207 9.75372 43.5941 9.1075 43.7817 8.35814Z" fill="#5FC5BD"/>
<path d="M53.5495 14.0449C53.6838 13.4821 53.6482 12.8922 53.4472 12.3496C53.2462 11.8071 52.8887 11.3364 52.4201 10.997C51.9515 10.6577 51.3927 10.4649 50.8146 10.4432C50.2364 10.4215 49.6647 10.5718 49.172 10.875C48.6792 11.1782 48.2875 11.6208 48.0463 12.1468C47.8052 12.6727 47.7254 13.2583 47.8172 13.8296C47.9089 14.4009 48.1681 14.9321 48.5618 15.356C48.9555 15.78 49.4662 16.0776 50.0291 16.2113C50.7831 16.3889 51.5767 16.2606 52.2364 15.8547C52.8961 15.4487 53.3682 14.798 53.5495 14.0449Z" fill="#5FC5BD"/>
<path d="M41.3443 28.208L32.8141 23.2984C32.279 22.9882 31.6725 22.8221 31.0539 22.8164C30.4358 22.8193 29.8295 22.9856 29.2964 23.2984L21.0073 28.0618C20.6775 28.2522 20.4037 28.5262 20.2135 28.8561C20.0233 29.1861 19.9235 29.5603 19.9241 29.9411V39.5085C19.9254 40.1274 20.0882 40.7352 20.3964 41.2719C20.7046 41.8086 21.1476 42.2555 21.6816 42.5685L30.2117 47.4835C30.4701 47.626 30.7603 47.7007 31.0553 47.7007C31.3503 47.7007 31.6405 47.626 31.8988 47.4835L40.4263 42.5685C40.9609 42.256 41.4046 41.8093 41.7133 41.2726C42.0221 40.7358 42.1852 40.1277 42.1865 39.5085V29.6785C42.1866 29.3812 42.1089 29.089 41.9612 28.8311C41.8134 28.5731 41.6008 28.3583 41.3443 28.208ZM40.8027 39.4841C40.7992 39.8641 40.6977 40.2368 40.5079 40.566C40.3181 40.8953 40.0466 41.1699 39.7195 41.3634L32.8304 45.3388C32.7207 45.4027 32.596 45.4366 32.469 45.4368C32.342 45.4371 32.2172 45.4038 32.1072 45.3403C31.9973 45.2768 31.906 45.1853 31.8428 45.0752C31.7796 44.9651 31.7466 44.8402 31.7472 44.7132V43.0668C31.7472 42.9052 31.683 42.7502 31.5687 42.6359C31.4544 42.5216 31.2995 42.4575 31.1379 42.4575H30.9591C30.7999 42.461 30.6484 42.5267 30.537 42.6406C30.4257 42.7545 30.3633 42.9075 30.3634 43.0668V44.5291C30.3661 44.6765 30.3292 44.822 30.2567 44.9504C30.1841 45.0788 30.0785 45.1854 29.9509 45.2592C29.8232 45.333 29.6781 45.3712 29.5306 45.37C29.3831 45.3687 29.2387 45.328 29.1123 45.2521L22.3802 41.3634C22.0493 41.1805 21.774 40.9115 21.5833 40.585C21.3926 40.2585 21.2937 39.8865 21.297 39.5085V31.964C21.2966 31.7945 21.3407 31.6278 21.425 31.4807C21.5093 31.3336 21.6307 31.2113 21.7772 31.126C21.9237 31.0407 22.0901 30.9954 22.2596 30.9946C22.4291 30.9939 22.5959 31.0378 22.7431 31.1218L24.7118 32.2592C24.8043 32.3132 24.9094 32.3418 25.0165 32.342C25.1236 32.3422 25.2289 32.3141 25.3216 32.2605C25.4143 32.2068 25.4912 32.1296 25.5444 32.0366C25.5975 31.9436 25.6252 31.8382 25.6244 31.7311V31.547C25.6276 31.4377 25.6011 31.3296 25.5477 31.2342C25.4942 31.1388 25.4159 31.0597 25.3211 31.0054L23.0789 29.7082C22.9693 29.6447 22.8783 29.5535 22.815 29.4437C22.7517 29.3339 22.7184 29.2094 22.7184 29.0827C22.7184 28.956 22.7517 28.8315 22.815 28.7217C22.8783 28.6119 22.9693 28.5207 23.0789 28.4571L29.9707 24.4818C30.2987 24.2885 30.6732 24.1884 31.0539 24.1921C31.4341 24.1919 31.8077 24.2918 32.1371 24.4818L39.3891 28.6738C39.4614 28.7178 39.5211 28.7796 39.5626 28.8533C39.6041 28.9271 39.6259 29.0103 39.6259 29.0949C39.6259 29.1795 39.6041 29.2627 39.5626 29.3364C39.5211 29.4102 39.4614 29.472 39.3891 29.516L37.2552 30.7454C37.1625 30.7989 37.0854 30.8759 37.0317 30.9686C36.978 31.0612 36.9495 31.1664 36.9492 31.2735V31.4305C36.949 31.5377 36.9771 31.6431 37.0306 31.7359C37.0841 31.8288 37.1612 31.9059 37.254 31.9595C37.3469 32.013 37.4522 32.0411 37.5594 32.041C37.6666 32.0408 37.7718 32.0124 37.8645 31.9586L40.0878 30.6723C40.1606 30.6302 40.2432 30.6079 40.3273 30.6077C40.4114 30.6074 40.4942 30.6292 40.5673 30.6708C40.6404 30.7124 40.7013 30.7725 40.7441 30.8449C40.7868 30.9174 40.8098 30.9998 40.8108 31.0839L40.8027 39.4841Z" fill="#D1E8E2" stroke="#D1E8E2" stroke-width="0.812397"/>
<path d="M29.3181 39.5109H32.8384C33.0714 39.5095 33.2943 39.4157 33.4582 39.2503C33.6222 39.0848 33.7138 38.861 33.7131 38.6281V36.5619C34.1609 36.0528 34.4521 35.4252 34.5518 34.7546C34.6515 34.0839 34.5554 33.3988 34.2751 32.7814C33.9948 32.1641 33.5421 31.6408 32.9716 31.2745C32.4011 30.9082 31.7369 30.7145 31.0589 30.7166C30.3809 30.7187 29.7179 30.9165 29.1496 31.2863C28.5813 31.6561 28.1319 32.1821 27.8554 32.8012C27.5789 33.4203 27.487 34.106 27.5908 34.776C27.6947 35.446 27.9898 36.0718 28.4407 36.5782V38.6471C28.4456 38.877 28.54 39.0959 28.7039 39.2572C28.8678 39.4185 29.0881 39.5095 29.3181 39.5109ZM31.0539 32.4701C31.4095 32.4694 31.7571 32.5765 32.0505 32.7774C32.344 32.9784 32.5696 33.2636 32.6975 33.5954C32.8255 33.9273 32.8497 34.2902 32.767 34.6361C32.6844 34.982 32.4987 35.2947 32.2346 35.5329L32.1967 35.5735L32.175 35.5979L32.1425 35.6385L32.1181 35.6656C32.1181 35.6656 32.0992 35.6926 32.091 35.7089L32.0721 35.7387L32.0504 35.7847L32.0342 35.8145L32.0152 35.8632C32.0141 35.8722 32.0141 35.8813 32.0152 35.8903C32.0086 35.908 32.0031 35.9261 31.999 35.9445V35.9743C31.9977 35.9923 31.9977 36.0104 31.999 36.0284C31.9977 36.0392 31.9977 36.0501 31.999 36.0609C31.9975 36.078 31.9975 36.0953 31.999 36.1124C31.999 36.1259 31.999 36.1368 31.999 36.1503C31.999 36.1638 31.999 36.1692 31.999 36.1774V37.7263H30.2415V36.1774C30.2401 36.1675 30.2401 36.1575 30.2415 36.1476C30.2428 36.1368 30.2428 36.1259 30.2415 36.1151V36.0582C30.24 36.0492 30.24 36.0401 30.2415 36.0311C30.2415 36.0095 30.2415 35.9932 30.2415 35.9743V35.9472C30.2372 35.9285 30.2309 35.9103 30.2225 35.893C30.2241 35.8841 30.2241 35.8749 30.2225 35.866C30.217 35.8481 30.2097 35.8309 30.2009 35.8145C30.2009 35.8145 30.2009 35.7955 30.1873 35.7874L30.1629 35.7414L30.1467 35.7089L30.1169 35.6683C30.1106 35.6577 30.1033 35.6477 30.0952 35.6385L30.0628 35.6006L30.0384 35.5735L29.9978 35.5356L29.9842 35.522C29.7175 35.2857 29.529 34.9737 29.4439 34.6277C29.3588 34.2816 29.3811 33.9178 29.5078 33.5847C29.6346 33.2517 29.8597 32.965 30.1533 32.763C30.4469 32.561 30.795 32.4532 31.1514 32.4539L31.0539 32.4701Z" fill="#D1E8E2"/>
<path d="M43.9927 15.61C43.7623 15.2088 43.455 14.857 43.0886 14.5747C42.7221 14.2924 42.3035 14.0851 41.8569 13.9646C41.4102 13.8441 40.9442 13.8129 40.4854 13.8726C40.0267 13.9324 39.5842 14.082 39.1833 14.3129L39.1535 14.3291C38.9415 14.4612 38.6979 14.5336 38.4481 14.5389C38.1984 14.5441 37.9519 14.4819 37.7346 14.3589L35.0536 12.8099C34.8478 12.6861 34.6786 12.5097 34.5635 12.2989C34.4483 12.0881 34.3913 11.8504 34.3983 11.6103C34.4038 10.9905 34.2455 10.3803 33.9395 9.84125C33.6335 9.30224 33.1907 8.85357 32.6557 8.5406C32.1207 8.22763 31.5125 8.06145 30.8927 8.05887C30.2729 8.05628 29.6634 8.21738 29.1259 8.52588C28.5694 8.8528 28.1117 9.32419 27.8013 9.89008C27.491 10.456 27.3395 11.0953 27.363 11.7403C27.3672 11.9906 27.3035 12.2374 27.1786 12.4544C27.0536 12.6714 26.8721 12.8504 26.6535 12.9724L24.1946 14.3914C23.9811 14.5196 23.7368 14.5873 23.4878 14.5873C23.2388 14.5873 22.9945 14.5196 22.781 14.3914C22.2398 14.0499 21.6157 13.8623 20.9759 13.849C20.336 13.8356 19.7046 13.9969 19.1496 14.3156C18.5983 14.6394 18.1439 15.1051 17.8339 15.6643C17.5238 16.2235 17.3694 16.8556 17.3867 17.4947C17.3885 17.7435 17.3233 17.9881 17.198 18.203C17.0727 18.4179 16.8919 18.5951 16.6745 18.716L14.0369 20.2379C13.8243 20.3643 13.5816 20.431 13.3342 20.431C13.0869 20.431 12.8441 20.3643 12.6315 20.2379C12.092 19.9059 11.4729 19.7257 10.8395 19.7161C10.2061 19.7066 9.58183 19.8682 9.03257 20.1838C8.22383 20.6574 7.63421 21.4306 7.39143 22.3358C7.14865 23.241 7.27224 24.2055 7.73545 25.0202C8.12312 25.6946 8.72323 26.2216 9.44204 26.5189C10.1609 26.8162 10.9579 26.867 11.7086 26.6634C12.4594 26.4599 13.1216 26.0134 13.5918 25.3938C14.062 24.7742 14.3138 24.0162 14.3077 23.2384C14.3131 22.9951 14.3819 22.7575 14.5073 22.549C14.6326 22.3405 14.8103 22.1683 15.0226 22.0496L17.7685 20.4654C17.9759 20.3408 18.2123 20.2727 18.4541 20.268C18.696 20.2632 18.9348 20.322 19.1469 20.4383C19.6825 20.7398 20.2873 20.8966 20.9019 20.8933C21.5164 20.89 22.1195 20.7268 22.6518 20.4196C23.1842 20.1125 23.6273 19.672 23.9377 19.1416C24.2481 18.6112 24.415 18.0091 24.4221 17.3945C24.4301 17.1533 24.5001 16.9183 24.6253 16.7119C24.7505 16.5056 24.9267 16.335 25.137 16.2166L27.7719 14.6974C27.978 14.5739 28.2128 14.5062 28.453 14.5009C28.6933 14.4957 28.9308 14.5532 29.1421 14.6676C29.6761 14.9694 30.2802 15.1251 30.8935 15.1189C31.5068 15.1127 32.1076 14.9449 32.6354 14.6324C32.8447 14.507 33.0835 14.4393 33.3275 14.4359C33.5714 14.4326 33.8119 14.4938 34.0246 14.6134L36.7597 16.1922C36.9643 16.3154 37.1327 16.4905 37.2478 16.6997C37.3629 16.909 37.4206 17.145 37.415 17.3837C37.411 18.0022 37.571 18.6106 37.8787 19.1471C38.1865 19.6836 38.6309 20.1289 39.1668 20.4377C39.7026 20.7465 40.3108 20.9078 40.9292 20.905C41.5477 20.9023 42.1544 20.7356 42.6875 20.4221C43.0896 20.1923 43.4425 19.8854 43.7259 19.5191C44.0093 19.1527 44.2176 18.734 44.3388 18.2869C44.4601 17.8399 44.4919 17.3733 44.4325 16.914C44.3731 16.4546 44.2237 16.0115 43.9927 15.61Z" fill="#5FC5BD"/>
<path d="M41.4662 55.8647C41.9285 55.8598 42.3853 55.7638 42.8105 55.5823C43.2357 55.4008 43.6211 55.1373 43.9444 54.8069C44.2678 54.4765 44.5229 54.0856 44.6953 53.6566C44.8676 53.2275 44.9537 52.7688 44.9487 52.3064V52.2739C44.9377 52.0246 44.9941 51.7769 45.1117 51.5568C45.2294 51.3367 45.4041 51.1523 45.6175 51.0229L48.2795 49.4414C48.4884 49.3225 48.7251 49.2613 48.9655 49.2642C49.2058 49.267 49.441 49.3338 49.647 49.4576C50.189 49.7711 50.8056 49.932 51.4316 49.9234C51.8941 49.9188 52.3512 49.8231 52.7768 49.6418C53.2023 49.4604 53.5879 49.197 53.9116 48.8665C54.2353 48.5361 54.4906 48.1451 54.6631 47.7158C54.8356 47.2866 54.9218 46.8277 54.9168 46.3651C54.9034 45.7204 54.7159 45.0913 54.3741 44.5445C54.0322 43.9977 53.5489 43.5535 52.9751 43.2591C52.755 43.14 52.571 42.9637 52.4428 42.7487C52.3146 42.5337 52.2468 42.2881 52.2467 42.0377L52.2115 39.1971C52.205 38.9482 52.2661 38.7023 52.3881 38.4854C52.5102 38.2684 52.6887 38.0886 52.9047 37.9649C53.4677 37.6601 53.9369 37.2076 54.2619 36.656C54.5868 36.1044 54.7552 35.4747 54.7489 34.8345C54.7364 34.195 54.5528 33.5706 54.217 33.0262C53.8812 32.4818 53.4056 32.0374 52.8397 31.7393C52.6222 31.6194 52.4408 31.4434 52.3146 31.2295C52.1883 31.0156 52.1219 30.7717 52.1221 30.5234L52.0842 27.4769C52.0774 27.2296 52.1372 26.9851 52.2572 26.7688C52.3773 26.5526 52.5532 26.3725 52.7666 26.2475C53.3202 25.9395 53.7804 25.488 54.0988 24.9404C54.4172 24.3928 54.5819 23.7694 54.5756 23.136C54.5585 22.1988 54.1729 21.3062 53.5023 20.6513C52.8317 19.9964 51.9302 19.6321 50.9929 19.6373C50.2137 19.6424 49.4583 19.9059 48.8449 20.3865C48.2316 20.8671 47.795 21.5376 47.6036 22.2929C47.4122 23.0482 47.4768 23.8457 47.7873 24.5604C48.0978 25.275 48.6366 25.8665 49.3194 26.242C49.5292 26.3654 49.7031 26.5416 49.8238 26.753C49.9444 26.9644 50.0077 27.2037 50.0072 27.4471L50.0478 30.6182C50.0536 30.8596 49.9965 31.0984 49.8821 31.3111C49.7677 31.5239 49.5999 31.7031 49.3952 31.8313C48.8703 32.1514 48.4378 32.6027 48.1402 33.1406C47.8426 33.6785 47.6901 34.2847 47.6977 34.8994C47.7054 35.5142 47.8729 36.1163 48.1838 36.6467C48.4947 37.1771 48.9383 37.6174 49.471 37.9243C49.6782 38.0486 49.8497 38.2244 49.9688 38.4347C50.0879 38.6449 50.1506 38.8823 50.1507 39.124L50.1886 42.165C50.1943 42.4052 50.138 42.6427 50.0251 42.8548C49.9122 43.0668 49.7465 43.2461 49.5441 43.3755C49.0192 43.6927 48.5874 44.1431 48.2925 44.681C47.9977 45.2188 47.8503 45.825 47.8652 46.4382C47.8716 46.6821 47.8136 46.9234 47.6972 47.1378C47.5807 47.3522 47.4098 47.5322 47.2017 47.6595L44.4937 49.2708C44.2879 49.3896 44.0544 49.4522 43.8167 49.4522C43.579 49.4522 43.3456 49.3896 43.1397 49.2708C42.6685 49.0077 42.1432 48.8565 41.6043 48.8289C41.0654 48.8012 40.5273 48.8978 40.0316 49.1112C39.536 49.3245 39.096 49.649 38.7457 50.0595C38.3955 50.47 38.1443 50.9556 38.0115 51.4786C37.8788 52.0017 37.868 52.5482 37.9801 53.0761C38.0923 53.6039 38.3242 54.0989 38.6581 54.5229C38.992 54.9468 39.4189 55.2883 39.9058 55.521C40.3927 55.7536 40.9266 55.8713 41.4662 55.8647Z" fill="#116466"/>
<path d="M7.67013 33.1501C7.44078 33.5517 7.29281 33.9946 7.23469 34.4535C7.17657 34.9123 7.20944 35.3781 7.33141 35.8242C7.45338 36.2704 7.66206 36.6881 7.94554 37.0535C8.22901 37.419 8.58172 37.725 8.98351 37.9541L9.0133 37.973C9.2347 38.0886 9.42077 38.2618 9.55185 38.4744C9.68293 38.687 9.75415 38.9311 9.75799 39.1808L9.78237 42.276C9.78013 42.5168 9.7137 42.7527 9.58994 42.9593C9.46618 43.1659 9.28956 43.3357 9.07829 43.4513C8.54036 43.7595 8.09335 44.2042 7.78248 44.7406C7.47161 45.277 7.30789 45.886 7.30789 46.5059C7.30789 47.1259 7.47161 47.7348 7.78248 48.2712C8.09335 48.8076 8.54036 49.2523 9.07829 49.5605C9.64199 49.8746 10.2802 50.0304 10.9252 50.0113C11.5702 49.9922 12.198 49.799 12.7422 49.4522C12.9559 49.3218 13.2009 49.2517 13.4512 49.2493C13.7015 49.2469 13.9478 49.3124 14.1639 49.4387L16.6336 50.8414C16.855 50.9592 17.0402 51.1352 17.169 51.3504C17.2979 51.5656 17.3655 51.8119 17.3647 52.0627C17.3438 52.7023 17.4977 53.3355 17.8097 53.8943C18.1218 54.453 18.5802 54.9161 19.1358 55.2338C19.6946 55.5452 20.3268 55.7012 20.9664 55.6855C21.606 55.6698 22.2297 55.4829 22.7726 55.1444C22.9862 55.0181 23.2299 54.9515 23.478 54.9515C23.7262 54.9515 23.9698 55.0181 24.1835 55.1444L26.8346 56.6473C27.0512 56.7666 27.2318 56.9419 27.3576 57.1548C27.4833 57.3677 27.5496 57.6105 27.5495 57.8578C27.5363 58.4909 27.6941 59.1158 28.0062 59.6667C28.3184 60.2177 28.7734 60.6742 29.3232 60.9882C30.1408 61.4464 31.106 61.564 32.0097 61.3157C32.9134 61.0673 33.6829 60.473 34.1516 59.6613C34.5416 58.9846 34.6955 58.1973 34.5891 57.4235C34.4826 56.6496 34.1218 55.9332 33.5634 55.3869C33.0051 54.8407 32.2809 54.4956 31.5049 54.4061C30.7289 54.3166 29.9452 54.4878 29.2772 54.8926C29.0662 55.0137 28.8272 55.0775 28.5839 55.0775C28.3407 55.0775 28.1016 55.0137 27.8907 54.8926L25.134 53.3273C24.9225 53.2104 24.745 53.0407 24.6188 52.8347C24.4925 52.6287 24.4219 52.3935 24.4136 52.1521C24.4088 51.5348 24.24 50.93 23.9245 50.3994C23.6091 49.8688 23.1582 49.4317 22.6182 49.1327C22.0853 48.8272 21.4818 48.6665 20.8675 48.6665C20.2533 48.6665 19.6497 48.8272 19.1168 49.1327C18.905 49.2489 18.6667 49.3083 18.4251 49.305C18.1835 49.3017 17.9469 49.2358 17.7384 49.1137L15.0954 47.6108C14.8853 47.4933 14.7094 47.3232 14.585 47.1171C14.4606 46.911 14.392 46.6761 14.3859 46.4355C14.3763 45.8225 14.2052 45.2229 13.89 44.6971C13.5748 44.1713 13.1266 43.7379 12.5906 43.4405C12.373 43.3261 12.1897 43.156 12.0593 42.9476C11.929 42.7393 11.8563 42.5 11.8486 42.2544L11.8269 39.0969C11.8283 38.8569 11.8935 38.6215 12.0158 38.415C12.1381 38.2085 12.3131 38.0382 12.5229 37.9216C12.9868 37.6468 13.3815 37.2692 13.6764 36.8178C13.9713 36.3663 14.1585 35.8532 14.2237 35.3179C14.2889 34.7827 14.2302 34.2396 14.0522 33.7306C13.8743 33.2216 13.5818 32.7603 13.1973 32.3822C12.8128 32.0042 12.3466 31.7195 11.8347 31.5502C11.3228 31.3808 10.7788 31.3314 10.2447 31.4056C9.71061 31.4798 9.20071 31.6756 8.75433 31.9781C8.30794 32.2806 7.93701 32.6816 7.67013 33.1501Z" fill="#289295"/>
</svg>
