<svg width="21" height="21" viewBox="0 0 21 21" fill="none" xmlns="http://www.w3.org/2000/svg">
<g opacity="0.5">
<path fill-rule="evenodd" clip-rule="evenodd" d="M4.89721 9.625C4.89721 6.72962 7.16093 4.375 9.94451 4.375C12.7281 4.375 14.9918 6.72962 14.9918 9.625C14.9918 12.5204 12.7281 14.875 9.94451 14.875C7.16093 14.875 4.89721 12.5204 4.89721 9.625ZM18.1102 16.8814L15.2543 13.9099C16.1401 12.7251 16.6742 11.2402 16.6742 9.625C16.6742 5.76538 13.6551 2.625 9.94451 2.625C6.23391 2.625 3.21478 5.76538 3.21478 9.625C3.21478 13.4846 6.23391 16.625 9.94451 16.625C11.4974 16.625 12.9249 16.0694 14.0639 15.148L16.9207 18.1186C17.0848 18.2893 17.3001 18.375 17.5155 18.375C17.7308 18.375 17.9462 18.2893 18.1102 18.1186C18.4391 17.7765 18.4391 17.2235 18.1102 16.8814Z" fill="#1F211B"/>
</g>
</svg>
