<svg width="23" height="23" viewBox="0 0 23 23" fill="none" xmlns="http://www.w3.org/2000/svg">
<rect width="22.2545" height="22.2545" rx="1.30909" fill="#E7E9F2"/>
<path fill-rule="evenodd" clip-rule="evenodd" d="M11.4167 18C10.6347 18 10 17.3653 10 16.5833C10 15.8013 10.6347 15.1667 11.4167 15.1667C12.1987 15.1667 12.8333 15.8013 12.8333 16.5833C12.8333 17.3653 12.1987 18 11.4167 18ZM10.0003 11.625C10.0003 12.407 10.635 13.0417 11.417 13.0417C12.199 13.0417 12.8337 12.407 12.8337 11.625C12.8337 10.843 12.199 10.2083 11.417 10.2083C10.635 10.2083 10.0003 10.843 10.0003 11.625ZM10.0003 6.66667C10.0003 7.44867 10.635 8.08333 11.417 8.08333C12.199 8.08333 12.8337 7.44867 12.8337 6.66666C12.8337 5.88467 12.199 5.25 11.417 5.25C10.635 5.25 10.0003 5.88467 10.0003 6.66667Z" fill="#1F211B"/>
</svg>
