<svg width="19" height="19" viewBox="0 0 19 19" fill="none" xmlns="http://www.w3.org/2000/svg">
<path fill-rule="evenodd" clip-rule="evenodd" d="M10.2916 5.65449C10.0375 5.58878 9.77467 5.54207 9.49996 5.54207C9.22525 5.54207 8.96242 5.58878 8.70829 5.65449V2.37541C8.70829 1.93762 9.06296 1.58374 9.49996 1.58374C9.93696 1.58374 10.2916 1.93762 10.2916 2.37541V5.65449ZM4.35374 14.2502C4.17324 14.2502 3.99274 14.1892 3.84391 14.0642C2.13074 12.6217 1.18707 10.7202 1.18707 8.70853C1.18707 6.69691 2.13074 4.79533 3.84391 3.35291C4.17799 3.07028 4.67753 3.11382 4.96016 3.4487C5.2412 3.78278 5.19845 4.28233 4.86436 4.56416C3.51378 5.7002 2.77041 7.1727 2.77041 8.70853C2.77041 10.2444 3.51378 11.7169 4.86436 12.8529C5.19845 13.1347 5.2412 13.6343 4.96016 13.9684C4.80341 14.1544 4.57936 14.2502 4.35374 14.2502ZM9.49996 9.50041C9.06375 9.50041 8.70829 9.14574 8.70829 8.70874C8.70829 8.27174 9.06375 7.91707 9.49996 7.91707C9.93617 7.91707 10.2916 8.27174 10.2916 8.70874C10.2916 9.14574 9.93617 9.50041 9.49996 9.50041ZM9.49996 11.8757C9.22525 11.8757 8.96242 11.829 8.70829 11.7633V15.8341C8.70829 16.2718 9.06296 16.6257 9.49996 16.6257C9.93696 16.6257 10.2916 16.2718 10.2916 15.8341V11.7633C10.0375 11.829 9.77467 11.8757 9.49996 11.8757ZM12.0606 12.3861C12.2181 12.5713 12.4414 12.6671 12.667 12.6671C12.8475 12.6671 13.028 12.6062 13.1769 12.4811C14.3794 11.4677 15.042 10.1282 15.042 8.70879C15.042 7.28933 14.3794 5.94983 13.1769 4.9365C12.8428 4.65466 12.3424 4.69821 12.0606 5.0315C11.7796 5.36637 11.8223 5.86591 12.1564 6.14775C12.9964 6.85391 13.4587 7.76433 13.4587 8.70879C13.4587 9.65325 12.9964 10.5637 12.1564 11.2698C11.8223 11.5517 11.7796 12.0512 12.0606 12.3861ZM6.33291 12.6674C6.15241 12.6674 5.97191 12.6064 5.82307 12.4813C4.62053 11.468 3.95791 10.1285 3.95791 8.70905C3.95791 7.28959 4.62053 5.95009 5.82307 4.93676C6.15716 4.65492 6.6567 4.69767 6.93932 5.03176C7.22036 5.36663 7.17761 5.86617 6.84353 6.14801C6.00357 6.85417 5.54124 7.76459 5.54124 8.70905C5.54124 9.65351 6.00357 10.5639 6.84353 11.2701C7.17761 11.5519 7.22036 12.0515 6.93932 12.3863C6.78257 12.5716 6.55853 12.6674 6.33291 12.6674ZM14.0398 13.9688C14.1965 14.1549 14.4206 14.2506 14.6462 14.2506C14.8267 14.2506 15.0072 14.1897 15.156 14.0646C16.8692 12.6222 17.8129 10.7206 17.8129 8.70898C17.8129 6.69736 16.8692 4.79577 15.156 3.35336C14.8211 3.07152 14.3216 3.11427 14.0398 3.44915C13.7587 3.78323 13.8015 4.28277 14.1356 4.56461C15.4861 5.70065 16.2295 7.17315 16.2295 8.70898C16.2295 10.2448 15.4861 11.7173 14.1356 12.8534C13.8015 13.1352 13.7587 13.6347 14.0398 13.9688Z" fill="#1F211B"/>
</svg>
