<svg width="18" height="11" viewBox="0 0 18 11" fill="none" xmlns="http://www.w3.org/2000/svg">
<path d="M17.1041 8.94769C16.7646 7.01047 15.8766 5.10221 13.7748 4.49122C14.5909 4.06266 15.1326 3.29819 15.1326 2.42949C15.1326 1.08878 13.8434 0 12.256 0C10.6685 0 9.37931 1.08878 9.37931 2.42949C9.37931 3.30109 9.92104 4.06266 10.7371 4.49122C9.79761 4.76631 9.09816 5.30201 8.58386 5.9825C9.05016 6.32419 9.45474 6.75275 9.79418 7.26529C10.2262 7.91682 10.5553 8.71313 10.7713 9.63107H16.3978C16.8332 9.63107 17.1692 9.30965 17.1041 8.94769Z" fill="#289295"/>
<path d="M6.3744 5.86231C7.19042 5.43375 7.73215 4.66929 7.73215 3.80058C7.73215 2.45987 6.44298 1.37109 4.85551 1.37109C3.26804 1.37109 1.97887 2.45698 1.97887 3.79768C1.97887 4.66929 2.5206 5.43085 3.33662 5.85942C1.23828 6.4733 0.350258 8.38156 0.00739283 10.3159C-0.054323 10.6778 0.278257 10.9993 0.710267 10.9993H8.99733C9.42934 10.9993 9.76534 10.675 9.7002 10.3159C9.36419 8.38156 8.47274 6.4733 6.3744 5.86231Z" fill="#289295"/>
</svg>
