<svg width="24" height="24" viewBox="0 0 24 24" fill="none" xmlns="http://www.w3.org/2000/svg">
<path fill-rule="evenodd" clip-rule="evenodd" d="M1.5 0H22.5C23.325 0 24 0.675 24 1.5C24 2.325 23.325 3 22.5 3H1.5C0.675 3 0 2.325 0 1.5C0 0.675 0.675 0 1.5 0Z" fill="#7F88A5"/>
<path fill-rule="evenodd" clip-rule="evenodd" d="M21 4.5V1.5C21 0.675 21.675 0 22.5 0C23.325 0 24 0.675 24 1.5V4.5C24 5.325 23.325 6 22.5 6C21.675 6 21 5.325 21 4.5Z" fill="#7F88A5"/>
<path fill-rule="evenodd" clip-rule="evenodd" d="M0 4.5V1.5C0 0.675 0.675 0 1.5 0C2.325 0 3 0.675 3 1.5V4.5C3 5.325 2.325 6 1.5 6C0.675 6 0 5.325 0 4.5Z" fill="#7F88A5"/>
<path fill-rule="evenodd" clip-rule="evenodd" d="M6.00134 13.5C5.54384 13.5 5.09534 13.293 4.79984 12.9C4.30184 12.237 4.43684 11.2965 5.09984 10.8L11.0998 6.29999C11.6188 5.90999 12.3328 5.89949 12.8623 6.27299L18.8623 10.494C19.5403 10.971 19.7038 11.907 19.2268 12.5835C18.7498 13.26 17.8153 13.425 17.1373 12.948L12.0283 9.35399L6.89984 13.2C6.62984 13.4025 6.31484 13.5 6.00134 13.5Z" fill="#7F88A5"/>
<path fill-rule="evenodd" clip-rule="evenodd" d="M12 24C11.1705 24 10.5 23.328 10.5 22.5V10.5C10.5 9.672 11.1705 9 12 9C12.8295 9 13.5 9.672 13.5 10.5V22.5C13.5 23.328 12.8295 24 12 24Z" fill="#7F88A5"/>
</svg>
