<svg width="17" height="18" viewBox="0 0 17 18" fill="none" xmlns="http://www.w3.org/2000/svg">
<path d="M15.4326 4.63277L9.68508 1.32478C9.32451 1.11572 8.91586 1.00382 8.49909 1C8.08263 1.00193 7.67409 1.11398 7.31493 1.32478L1.72984 4.53424C1.50762 4.66254 1.32316 4.84714 1.19502 5.06945C1.06689 5.29176 0.999623 5.54392 1 5.80051V12.2468C1.00087 12.6638 1.11057 13.0734 1.31825 13.435C1.52594 13.7966 1.82441 14.0977 2.18416 14.3086L7.93164 17.6202C8.10569 17.7162 8.30123 17.7666 8.5 17.7666C8.69877 17.7666 8.89431 17.7162 9.06836 17.6202L14.814 14.3086C15.1742 14.0981 15.4732 13.7971 15.6812 13.4354C15.8892 13.0738 15.9991 12.664 16 12.2468V5.62352C16.0001 5.42322 15.9478 5.22639 15.8482 5.05258C15.7487 4.87876 15.6054 4.73403 15.4326 4.63277ZM15.0676 12.2304C15.0653 12.4864 14.9969 12.7375 14.869 12.9594C14.7411 13.1812 14.5582 13.3663 14.3378 13.4967L9.69602 16.1752C9.62211 16.2183 9.53812 16.2411 9.45255 16.2412C9.36699 16.2414 9.2829 16.219 9.2088 16.1762C9.13471 16.1334 9.07324 16.0718 9.03063 15.9976C8.98803 15.9234 8.96579 15.8392 8.96618 15.7537V14.6443C8.96618 14.5354 8.92293 14.431 8.84594 14.354C8.76895 14.277 8.66453 14.2338 8.55565 14.2338H8.43523C8.32794 14.2362 8.22584 14.2805 8.15082 14.3572C8.07579 14.4339 8.03379 14.537 8.03382 14.6443V15.6296C8.03562 15.7289 8.0108 15.827 7.96192 15.9135C7.91304 16 7.84189 16.0718 7.75586 16.1215C7.66984 16.1713 7.57207 16.197 7.47271 16.1962C7.37335 16.1954 7.27603 16.1679 7.19085 16.1168L2.65491 13.4967C2.43195 13.3734 2.24643 13.1922 2.11797 12.9722C1.9895 12.7522 1.92285 12.5016 1.92507 12.2468V7.16348C1.92476 7.04926 1.95449 6.93696 2.01128 6.83786C2.06807 6.73875 2.14993 6.65632 2.24863 6.59884C2.34734 6.54135 2.45942 6.51083 2.57364 6.51034C2.68787 6.50985 2.80021 6.5394 2.89941 6.59603L4.22589 7.36236C4.2882 7.39877 4.35904 7.41803 4.43121 7.41818C4.50338 7.41834 4.57431 7.39938 4.63677 7.36323C4.69924 7.32709 4.75102 7.27505 4.78685 7.2124C4.82268 7.14975 4.84129 7.07874 4.84078 7.00657V6.8825C4.84293 6.80887 4.82506 6.73604 4.78907 6.67177C4.75308 6.6075 4.70032 6.55421 4.63642 6.51758L3.12566 5.64359C3.05179 5.60078 2.99048 5.53931 2.94785 5.46534C2.90523 5.39136 2.88279 5.30749 2.88279 5.22211C2.88279 5.13674 2.90523 5.05286 2.94785 4.97889C2.99048 4.90492 3.05179 4.84345 3.12566 4.80063L7.76925 2.12213C7.99025 1.99189 8.24258 1.92439 8.49909 1.92689C8.75529 1.9268 9.007 1.99413 9.22893 2.12213L14.1152 4.9466C14.1639 4.97622 14.2042 5.01789 14.2321 5.06758C14.26 5.11727 14.2747 5.17332 14.2747 5.23032C14.2747 5.28733 14.26 5.34338 14.2321 5.39307C14.2042 5.44276 14.1639 5.48443 14.1152 5.51405L12.6774 6.34241C12.6149 6.3785 12.563 6.43034 12.5268 6.49278C12.4906 6.55521 12.4715 6.62605 12.4712 6.69821V6.80404C12.4711 6.87626 12.49 6.94724 12.5261 7.00981C12.5621 7.07238 12.6141 7.12434 12.6766 7.16043C12.7392 7.19652 12.8101 7.21547 12.8824 7.21536C12.9546 7.21526 13.0255 7.1961 13.0879 7.15983L14.5859 6.29315C14.635 6.26481 14.6907 6.2498 14.7473 6.24963C14.804 6.24945 14.8598 6.26412 14.909 6.29216C14.9583 6.3202 14.9993 6.36064 15.0281 6.40947C15.0569 6.4583 15.0724 6.51381 15.0731 6.57049L15.0676 12.2304Z" fill="#1F211B" stroke="#1F211B" stroke-width="0.1943"/>
<path d="M7.32944 12.2482H9.70141C9.85837 12.2473 10.0085 12.1841 10.119 12.0726C10.2295 11.9611 10.2912 11.8104 10.2908 11.6534V10.2612C10.5925 9.91822 10.7887 9.49536 10.8559 9.0435C10.923 8.59163 10.8583 8.12998 10.6694 7.71402C10.4805 7.29807 10.1756 6.9455 9.79113 6.6987C9.40671 6.4519 8.95919 6.32136 8.50236 6.32277C8.04553 6.32417 7.59883 6.45747 7.21593 6.70664C6.83304 6.95581 6.53024 7.31024 6.34393 7.72736C6.15761 8.14447 6.09572 8.60651 6.16567 9.05795C6.23563 9.50939 6.43446 9.93103 6.73827 10.2722V11.6662C6.7416 11.8211 6.80523 11.9686 6.91564 12.0773C7.02604 12.186 7.17451 12.2473 7.32944 12.2482ZM8.49901 7.50428C8.73864 7.50377 8.9728 7.57597 9.17053 7.71134C9.36827 7.84672 9.52027 8.03891 9.60647 8.2625C9.69266 8.4861 9.70899 8.73059 9.6533 8.96366C9.5976 9.19674 9.4725 9.40743 9.29453 9.5679L9.26899 9.59527L9.25439 9.61169L9.23249 9.63906L9.21607 9.65731C9.21607 9.65731 9.2033 9.67555 9.19783 9.6865L9.18505 9.70657L9.17046 9.73759L9.15951 9.75766L9.14674 9.7905C9.14601 9.79656 9.14601 9.80269 9.14674 9.80875C9.14226 9.82065 9.1386 9.83284 9.13579 9.84524V9.86531C9.13493 9.87746 9.13493 9.88965 9.13579 9.9018C9.13491 9.90907 9.13491 9.91643 9.13579 9.9237C9.13483 9.93523 9.13483 9.94683 9.13579 9.95837C9.13579 9.96749 9.13579 9.97479 9.13579 9.98391C9.13579 9.99303 9.13579 9.99668 9.13579 10.0022V11.0458H7.95163V10.0022C7.95073 9.9955 7.95073 9.98874 7.95163 9.98208C7.95252 9.97481 7.95252 9.96746 7.95163 9.96019V9.92187C7.95064 9.91583 7.95064 9.90967 7.95163 9.90363C7.95163 9.88903 7.95163 9.87808 7.95163 9.86531V9.84707C7.94877 9.83446 7.94449 9.82221 7.93886 9.81057C7.93991 9.80454 7.93991 9.79836 7.93886 9.79233C7.93511 9.78033 7.93022 9.76872 7.92426 9.75766C7.92426 9.75766 7.92426 9.74489 7.91514 9.73941L7.89871 9.7084L7.88777 9.6865L7.8677 9.65913C7.86344 9.65202 7.85856 9.6453 7.8531 9.63906L7.8312 9.61352L7.81478 9.59527L7.78741 9.56973L7.77829 9.5606C7.59857 9.40136 7.4716 9.19117 7.41426 8.958C7.35692 8.72483 7.37194 8.47972 7.45731 8.25529C7.54269 8.03086 7.69437 7.83775 7.89219 7.70164C8.09 7.56553 8.32457 7.49287 8.56469 7.49334L8.49901 7.50428Z" fill="#1F211B"/>
</svg>
