<svg width="20" height="20" viewBox="0 0 20 20" fill="none" xmlns="http://www.w3.org/2000/svg">
<path opacity="0.5" fill-rule="evenodd" clip-rule="evenodd" d="M11.6665 15.2845C11.6665 16.0337 10.9031 16.667 9.99979 16.667C9.09645 16.667 8.33312 16.0337 8.33312 15.2845V15.0003H11.6665V15.2845ZM17.1006 12.6729L15.5998 11.1704V7.44709C15.5998 4.54625 13.5148 2.08292 10.749 1.71625C9.14812 1.50375 7.53146 1.99209 6.31896 3.05542C5.09896 4.12375 4.39979 5.66125 4.39979 7.27292L4.39896 11.1704L2.89896 12.6738C2.50812 13.0646 2.39229 13.6479 2.60396 14.1588C2.81646 14.6696 3.31062 15.0004 3.86396 15.0004H6.66646V15.2846C6.66646 16.9663 8.16146 18.3338 9.99979 18.3338C11.8381 18.3338 13.3331 16.9663 13.3331 15.2846V15.0004H16.1348C16.6881 15.0004 17.1823 14.6704 17.394 14.1588C17.6065 13.6479 17.4906 13.0646 17.1006 12.6729Z" fill="#7F88A5"/>
<circle cx="15" cy="6" r="3" fill="#E55439"/>
</svg>
