<svg width="28" height="28" viewBox="0 0 28 28" fill="none" xmlns="http://www.w3.org/2000/svg">
<path d="M14 21V14M16.625 21V19.6875C16.625 18.1016 18.3499 16.6015 19.4688 15.5313C21.046 14.0235 21.875 11.9979 21.875 9.62503C21.875 5.25003 18.3898 1.75003 14 1.75003C12.9651 1.74714 11.9397 1.94887 10.983 2.3436C10.0262 2.73833 9.15696 3.31829 8.42513 4.05013C7.69329 4.78196 7.11333 5.65124 6.7186 6.60799C6.32387 7.56473 6.12214 8.59006 6.12503 9.62503C6.12503 11.9132 6.98964 14.076 8.53128 15.5313C9.64417 16.5818 11.375 18.0852 11.375 19.6875V21H16.625ZM12.25 26.25H15.75H12.25ZM11.375 23.625H16.625H11.375Z" stroke="#289295" stroke-width="1.75" stroke-linecap="round" stroke-linejoin="round"/>
<path d="M16.0781 13.125C16.0781 13.125 14.9018 14 14 14C13.0982 14 11.9219 13.125 11.9219 13.125" stroke="#289295" stroke-width="1.75" stroke-linecap="round" stroke-linejoin="round"/>
</svg>
