<svg width="18" height="17" viewBox="0 0 18 17" fill="none" xmlns="http://www.w3.org/2000/svg">
<path opacity="0.5" d="M17.1624 8.24963C17.1569 8.14668 17.1151 8.04902 17.0444 7.97396C16.9737 7.8989 16.8787 7.85128 16.7763 7.83955L15.7185 7.66833C15.6709 7.66053 15.6271 7.63755 15.5937 7.60283C15.5602 7.56811 15.5389 7.52351 15.5328 7.47567C15.5126 7.34571 15.4916 7.21081 15.4627 7.08291C15.4534 7.03639 15.4589 6.98813 15.4783 6.94486C15.4978 6.9016 15.5302 6.86548 15.5712 6.84157L16.511 6.31968C16.6043 6.27211 16.6769 6.1919 16.715 6.0943C16.753 5.99671 16.7538 5.88854 16.7173 5.79037L16.5543 5.34068C16.5186 5.24217 16.4478 5.16031 16.3554 5.11076C16.2631 5.0612 16.1558 5.04744 16.0539 5.0721L14.9998 5.27838C14.9527 5.28681 14.9041 5.28013 14.861 5.25932C14.8179 5.2385 14.7824 5.2046 14.7597 5.16245C14.6982 5.04735 14.6314 4.93018 14.5617 4.81508C14.5364 4.77407 14.5245 4.72617 14.5277 4.67809C14.531 4.63 14.5492 4.58414 14.5798 4.54691L15.2812 3.73665C15.3524 3.66016 15.3934 3.56033 15.3963 3.45584C15.3993 3.35136 15.3641 3.24937 15.2973 3.16897L14.9912 2.80138C14.9246 2.7207 14.8304 2.6676 14.7269 2.65235C14.6234 2.63711 14.5179 2.66081 14.4309 2.71887L13.508 3.27293C13.4671 3.29745 13.4194 3.30816 13.3719 3.30348C13.3244 3.2988 13.2797 3.27898 13.2444 3.24694C13.1425 3.15742 13.0381 3.07119 12.9403 2.99157C12.9028 2.96195 12.8757 2.92115 12.8629 2.87508C12.8502 2.82901 12.8524 2.78007 12.8694 2.73537L13.2514 1.72873C13.293 1.63268 13.2979 1.52469 13.2651 1.42528C13.2323 1.32588 13.1642 1.24197 13.0736 1.18951L12.6573 0.946516C12.5667 0.894248 12.4599 0.877258 12.3575 0.898802C12.2552 0.920345 12.1643 0.978907 12.1024 1.06327L11.4279 1.91066C11.4036 1.9475 11.3673 1.97473 11.3251 1.98768C11.283 2.00063 11.2376 1.99849 11.1968 1.98163C11.1717 1.97131 10.9588 1.88426 10.7934 1.82898C10.748 1.81419 10.7085 1.78527 10.6808 1.74644C10.653 1.70762 10.6384 1.66093 10.6391 1.61321L10.6552 0.53767C10.6609 0.432649 10.6282 0.329134 10.5631 0.24651C10.498 0.163885 10.405 0.107818 10.3016 0.0888058L9.82922 0.00629404C9.72629 -0.0114868 9.62041 0.00870159 9.53126 0.0631077C9.4421 0.117514 9.37572 0.202438 9.34446 0.302099L8.99379 1.32566C8.97786 1.37109 8.94779 1.41023 8.908 1.43733C8.8682 1.46443 8.82077 1.47807 8.77266 1.47624H8.37041C8.32267 1.47722 8.27583 1.46312 8.23657 1.43593C8.19731 1.40874 8.16763 1.36987 8.15175 1.32483L7.80273 0.307049C7.77202 0.206661 7.70577 0.120908 7.61639 0.0658504C7.52701 0.0107925 7.42062 -0.00979464 7.31715 0.00794432L6.84394 0.0904561C6.74116 0.109318 6.64871 0.164836 6.58376 0.246704C6.51881 0.328572 6.48578 0.431226 6.49079 0.535607L6.5073 1.61486C6.50762 1.6633 6.4923 1.71055 6.46361 1.74958C6.43491 1.78861 6.39438 1.81732 6.34805 1.83145C6.25357 1.86817 6.04853 1.94656 5.95529 1.98121C5.87278 2.01092 5.78284 1.97832 5.71023 1.89458L5.03941 1.06946C4.97786 0.98458 4.88711 0.925452 4.7846 0.903443C4.6821 0.881433 4.57507 0.898097 4.48411 0.950228L4.06907 1.19075C3.9775 1.24331 3.90862 1.3279 3.87572 1.42823C3.84281 1.52855 3.8482 1.6375 3.89085 1.73409L4.27246 2.73826C4.28911 2.78305 4.2913 2.83194 4.27872 2.87805C4.26614 2.92415 4.23942 2.96515 4.20233 2.99528C4.10208 3.07779 3.99935 3.16031 3.89704 3.25189C3.8619 3.28368 3.81752 3.30339 3.77039 3.30814C3.72325 3.31289 3.67583 3.30243 3.63506 3.2783L2.72289 2.7135C2.63531 2.65653 2.52994 2.63347 2.42656 2.64867C2.32318 2.66386 2.2289 2.71625 2.1614 2.79602L1.85652 3.16278C1.7888 3.24264 1.75291 3.34466 1.75573 3.44933C1.75854 3.554 1.79987 3.65395 1.87179 3.73005L2.57644 4.53949C2.60771 4.57596 2.6264 4.62154 2.62974 4.66947C2.63309 4.7174 2.6209 4.76513 2.595 4.80559C2.52445 4.91781 2.45721 5.0358 2.39615 5.15379C2.37331 5.19623 2.33761 5.23035 2.29418 5.25125C2.25075 5.27215 2.20181 5.27876 2.15439 5.27013L1.10195 5.06674C1.00005 5.04215 0.89267 5.05594 0.800291 5.10548C0.707913 5.15502 0.637007 5.23683 0.601105 5.33531L0.436082 5.78418C0.399606 5.88247 0.400459 5.99074 0.438478 6.08845C0.476498 6.18616 0.549042 6.26652 0.642361 6.31432L1.58217 6.8362C1.62443 6.85953 1.65796 6.89598 1.67768 6.94004C1.6974 6.9841 1.70225 7.03338 1.6915 7.08044L1.6816 7.13283C1.66014 7.24794 1.64034 7.35685 1.62136 7.47278C1.6148 7.52002 1.59347 7.56397 1.56042 7.59835C1.52738 7.63273 1.4843 7.65579 1.43736 7.66421L0.377498 7.83542C0.27385 7.84815 0.178377 7.89816 0.10891 7.97613C0.0394428 8.0541 0.000732078 8.15469 7.0344e-06 8.25912V8.73686C-0.000596984 8.84169 0.0377168 8.94301 0.10753 9.0212C0.177343 9.0994 0.273688 9.14891 0.377911 9.16015L1.43736 9.33095C1.48497 9.33869 1.52879 9.36164 1.56226 9.39638C1.59572 9.43111 1.61704 9.47575 1.62301 9.52361C1.64323 9.65398 1.66427 9.78847 1.69315 9.91637C1.70245 9.96288 1.697 10.0111 1.67755 10.0544C1.65809 10.0977 1.62562 10.1338 1.58465 10.1577L0.645249 10.6804C0.551929 10.728 0.479349 10.8082 0.441315 10.9058C0.403281 11.0034 0.402446 11.1116 0.438969 11.2097L0.603993 11.6594C0.639813 11.7579 0.71064 11.8397 0.80295 11.8892C0.89526 11.9388 1.00258 11.9526 1.10443 11.928L2.15851 11.7238C2.20565 11.7152 2.25429 11.7218 2.29743 11.7427C2.34058 11.7635 2.37601 11.7975 2.39862 11.8397C2.46051 11.9552 2.52693 12.072 2.59665 12.1871C2.6221 12.2281 2.63403 12.276 2.63077 12.3241C2.62752 12.3722 2.60923 12.4181 2.5785 12.4553L1.87715 13.2651C1.80507 13.341 1.76319 13.4406 1.75939 13.5453C1.75559 13.6499 1.79013 13.7523 1.85652 13.8332L2.16223 14.2008C2.22877 14.2815 2.32294 14.3347 2.42646 14.35C2.52999 14.3652 2.63548 14.3414 2.72248 14.2833L3.64538 13.7292C3.68629 13.7047 3.73401 13.694 3.78148 13.6987C3.82895 13.7034 3.87366 13.7232 3.909 13.7552C4.01131 13.8448 4.11528 13.931 4.21306 14.0106C4.25055 14.0402 4.27767 14.081 4.29049 14.1271C4.30332 14.1731 4.3012 14.222 4.28443 14.2668L3.90199 15.2734C3.86038 15.3695 3.85551 15.4775 3.88829 15.5769C3.92107 15.6763 3.98922 15.7602 4.0798 15.8127L4.4969 16.0536C4.58749 16.1059 4.6942 16.123 4.79658 16.1015C4.89897 16.08 4.98984 16.0215 5.05179 15.9372L5.73457 15.0977C5.79233 15.0263 5.88309 14.9946 5.95034 15.0218C6.09391 15.0812 6.19004 15.1146 6.36042 15.1715C6.40581 15.1864 6.44528 15.2153 6.47311 15.2541C6.50093 15.2929 6.51565 15.3396 6.51513 15.3873L6.49863 16.462C6.49306 16.567 6.52586 16.6704 6.59091 16.753C6.65596 16.8356 6.74883 16.8917 6.85219 16.9109L7.32457 16.9934C7.42752 17.0114 7.53348 16.9912 7.62268 16.9368C7.71188 16.8824 7.77822 16.7974 7.80933 16.6976L8.16 15.6757C8.17587 15.6302 8.20593 15.591 8.24574 15.5639C8.28555 15.5368 8.33301 15.5232 8.38114 15.5251H8.78338C8.83114 15.5241 8.878 15.5381 8.91727 15.5653C8.95654 15.5925 8.98621 15.6314 9.00204 15.6765L9.35148 16.6943C9.37854 16.7826 9.43321 16.86 9.50746 16.915C9.5817 16.97 9.67163 16.9998 9.76403 17C9.78866 17.0001 9.81324 16.9978 9.83747 16.9934L10.3107 16.9109C10.4135 16.892 10.5059 16.8365 10.5709 16.7546C10.6358 16.6728 10.6688 16.5701 10.6638 16.4657L10.6473 15.3865C10.647 15.3389 10.6618 15.2925 10.6896 15.2539C10.7175 15.2154 10.7568 15.1867 10.802 15.172C10.9605 15.1187 11.0718 15.0758 11.1696 15.0379L11.1944 15.0284C11.3223 14.9842 11.3842 15.0379 11.42 15.0824L12.1111 15.9335C12.173 16.0177 12.2638 16.0761 12.3661 16.0976C12.4684 16.1191 12.575 16.1021 12.6656 16.0499L13.081 15.8094C13.1719 15.7569 13.2402 15.6727 13.273 15.5731C13.3058 15.4734 13.3008 15.3651 13.2588 15.2689L12.8776 14.2647C12.8608 14.22 12.8585 14.1711 12.871 14.125C12.8835 14.0788 12.9102 14.0378 12.9473 14.0077C13.0476 13.9252 13.1503 13.8427 13.2526 13.7511C13.288 13.7192 13.3326 13.6995 13.38 13.6949C13.4274 13.6903 13.475 13.701 13.5158 13.7255L14.4396 14.2783C14.5271 14.3354 14.6325 14.3585 14.7359 14.3433C14.8393 14.3281 14.9336 14.2757 15.0011 14.1958L15.3063 13.8287C15.3741 13.7488 15.41 13.6468 15.4071 13.5421C15.4043 13.4374 15.363 13.3375 15.2911 13.2614L14.5873 12.4499C14.556 12.4134 14.5373 12.3678 14.534 12.3199C14.5306 12.272 14.5428 12.2243 14.5687 12.1838C14.6392 12.072 14.7065 11.954 14.7675 11.8356C14.7905 11.7932 14.8262 11.7592 14.8696 11.7383C14.913 11.7174 14.9619 11.7107 15.0093 11.7192L16.0605 11.9243C16.1624 11.9489 16.2698 11.9351 16.3622 11.8855C16.4545 11.836 16.5254 11.7542 16.5613 11.6557L16.7243 11.2068C16.7608 11.1086 16.7599 11.0004 16.7219 10.9028C16.6839 10.8051 16.6113 10.7248 16.518 10.6771L15.5774 10.1544C15.5357 10.1309 15.5027 10.0945 15.4834 10.0507C15.464 10.007 15.4592 9.95811 15.4697 9.91142L15.4796 9.85902C15.5011 9.74392 15.5209 9.635 15.5399 9.51907C15.5464 9.47184 15.5677 9.42788 15.6008 9.3935C15.6338 9.35912 15.6769 9.33607 15.7239 9.32765L16.7837 9.15685C16.8876 9.14431 16.9834 9.09432 17.0531 9.01626C17.1228 8.93819 17.1617 8.83739 17.1624 8.73274V8.24963ZM5.50973 12.1277C5.45832 12.2171 5.38643 12.293 5.29997 12.3492C5.21351 12.4054 5.11494 12.4403 5.01237 12.451C4.90981 12.4617 4.80616 12.448 4.70995 12.4108C4.61374 12.3737 4.52772 12.3143 4.45894 12.2374C3.52951 11.2097 3.01632 9.87263 3.01952 8.48701C3.02273 7.10138 3.54209 5.76666 4.47627 4.74329C4.5454 4.66648 4.63179 4.60719 4.72833 4.57031C4.82487 4.53343 4.92879 4.52002 5.03153 4.53118C5.13427 4.54234 5.23288 4.57776 5.31925 4.6345C5.40562 4.69125 5.47727 4.76771 5.52829 4.85757L7.41162 8.17248C7.46818 8.27135 7.49793 8.38327 7.49793 8.49716C7.49793 8.61106 7.46818 8.72298 7.41162 8.82185L5.50973 12.1277ZM8.58123 14.0741C8.18863 14.0742 7.79713 14.0327 7.41327 13.9504C7.31328 13.928 7.21995 13.8824 7.14085 13.8173C7.06176 13.7522 6.99912 13.6693 6.95802 13.5755C6.91691 13.4816 6.8985 13.3794 6.90427 13.2771C6.91004 13.1748 6.93983 13.0753 6.99123 12.9866L8.889 9.68616C8.94608 9.58671 9.0284 9.50408 9.12764 9.44664C9.22688 9.38919 9.33953 9.35896 9.4542 9.359H13.2555C13.3579 9.35884 13.4589 9.38281 13.5503 9.42895C13.6417 9.4751 13.721 9.54214 13.7816 9.62462C13.8423 9.70711 13.8827 9.80273 13.8995 9.90373C13.9163 10.0047 13.9091 10.1083 13.8785 10.206C13.1569 12.447 11.0566 14.0741 8.58123 14.0741ZM8.89106 7.3123L7.0135 4.00605C6.96262 3.91727 6.93334 3.81776 6.92803 3.71557C6.92272 3.61337 6.94153 3.51137 6.98294 3.41779C7.02434 3.32421 7.08719 3.24169 7.16639 3.17689C7.24559 3.11209 7.33893 3.06684 7.43885 3.04479C7.81449 2.96563 8.19734 2.92581 8.58123 2.92597C11.0566 2.92597 13.1569 4.5531 13.8772 6.79536C13.9079 6.89306 13.9151 6.99661 13.8983 7.09761C13.8815 7.19861 13.8411 7.29423 13.7804 7.37672C13.7197 7.45921 13.6405 7.52624 13.5491 7.57239C13.4577 7.61854 13.3567 7.6425 13.2543 7.64234H9.45874C9.34336 7.64257 9.22999 7.61213 9.13024 7.55414C9.03049 7.49614 8.94795 7.41268 8.89106 7.3123Z" fill="#7F88A5"/>
</svg>
