<svg width="17" height="17" viewBox="0 0 17 17" fill="none" xmlns="http://www.w3.org/2000/svg">
<path fill-rule="evenodd" clip-rule="evenodd" d="M12.0417 2.47917C12.0417 2.28367 11.8823 2.125 11.6875 2.125H9.91667C7.96025 2.125 6.375 3.55229 6.375 5.3125V7.225H4.60417C4.40867 7.225 4.25 7.38367 4.25 7.57917V9.42083C4.25 9.61633 4.40867 9.775 4.60417 9.775H6.375V14.5208C6.375 14.7163 6.53367 14.875 6.72917 14.875H8.85417C9.04896 14.875 9.20833 14.7163 9.20833 14.5208V9.775H11.0635C11.2228 9.775 11.3624 9.66875 11.4056 9.51575L11.9163 7.67408C11.9793 7.44883 11.8093 7.225 11.5756 7.225H9.20833V5.3125C9.20833 4.96046 9.52496 4.675 9.91667 4.675H11.6875C11.8823 4.675 12.0417 4.51633 12.0417 4.32083V2.47917Z" fill="#3B5998"/>
</svg>
