<svg width="7" height="7" viewBox="0 0 7 7" fill="none" xmlns="http://www.w3.org/2000/svg">
<path fill-rule="evenodd" clip-rule="evenodd" d="M5.84601 3.61464C6.09387 3.36679 6.09432 2.96526 5.84782 2.71605L3.6072 0.452906L3.60495 0.450653C3.35755 0.203248 2.95557 0.201446 2.70591 0.4484C2.45625 0.695354 2.454 1.09958 2.70185 1.35014L3.85731 2.51732L0.901072 2.51732C0.549568 2.51732 0.264309 2.80258 0.263858 3.15453C0.264309 3.33073 0.335511 3.49026 0.450425 3.60518C0.565791 3.72054 0.72532 3.79175 0.901072 3.79175L3.86723 3.79175L2.70321 4.95757C2.45535 5.20632 2.4549 5.60965 2.70366 5.85841L2.70411 5.85886C2.95286 6.10762 3.35709 6.10717 3.6054 5.85796L5.84601 3.61464Z" fill="#1F211B"/>
</svg>
