<svg width="14" height="14" viewBox="0 0 14 14" fill="none" xmlns="http://www.w3.org/2000/svg">
<path fill-rule="evenodd" clip-rule="evenodd" d="M4.71154 11.6665C8.93838 11.6665 11.3837 8.38467 11.3837 5.27025C11.3837 5.1845 11.9845 4.66884 12.2418 3.59375C12.2943 3.37559 12.082 3.2035 11.8819 3.29509C11.3685 3.53075 10.8476 3.34409 10.6213 3.07575C9.75096 2.12667 8.29554 2.08117 7.36979 2.97367C6.77304 3.54942 6.51988 4.40692 6.70479 5.22534C4.75004 5.36475 3.40779 4.43842 2.30413 3.1685C2.16179 3.00342 1.89754 3.09034 1.86779 3.3085C1.70446 4.523 1.65313 7.47584 4.57913 9.17159C4.07104 9.90192 3.07646 10.333 1.96929 10.5179C1.72429 10.5593 1.66596 10.8988 1.88996 11.0085C2.76729 11.4402 3.73154 11.6659 4.71154 11.6648" fill="#00ACEE"/>
</svg>
